<svg width="24" height="24" viewBox="0 0 24 24" fill="none" xmlns="http://www.w3.org/2000/svg">
<g opacity="0.5">
<path opacity="0.4" d="M12.02 2C6.21 2 2 6.74 2 12C2 13.68 2.49 15.41 3.35 16.99C3.51 17.25 3.53 17.58 3.42 17.89L2.75 20.13C2.6 20.67 3.06 21.07 3.57 20.91L5.59 20.31C6.14 20.13 6.57 20.36 7.081 20.67C8.541 21.53 10.36 21.97 12 21.97C16.96 21.97 22 18.14 22 11.97C22 6.65 17.7 2 12.02 2" fill="url(#paint0_linear_601_31636)"/>
<path d="M7.37012 10.7295C8.07999 10.7296 8.64941 11.2999 8.64941 12.0098C8.64933 12.7096 8.07994 13.2799 7.37012 13.29C6.67017 13.29 6.08992 12.7097 6.08984 12.0098C6.08984 11.2998 6.66012 10.7295 7.37012 10.7295ZM11.9805 10.7295C12.6904 10.7296 13.2598 11.2998 13.2598 12.0098C13.2597 12.7096 12.6903 13.2899 11.9805 13.29C11.2706 13.28 10.7004 12.7098 10.7002 12C10.7002 11.3 11.2805 10.7195 11.9805 10.7295ZM16.5898 10.7295C17.2998 10.7295 17.8701 11.2998 17.8701 12.0098C17.87 12.7097 17.2998 13.29 16.5898 13.29C15.88 13.2899 15.3096 12.7096 15.3096 12.0098C15.3096 11.2998 15.8799 10.7296 16.5898 10.7295Z" fill="white"/>
</g>
<defs>
<linearGradient id="paint0_linear_601_31636" x1="2" y1="0.773773" x2="25.0865" y2="4.35606" gradientUnits="userSpaceOnUse">
<stop stop-color="#53E88B"/>
<stop offset="1" stop-color="#15BE77"/>
</linearGradient>
</defs>
</svg>
