<svg width="24" height="24" viewBox="0 0 24 24" fill="none" xmlns="http://www.w3.org/2000/svg">
<path opacity="0.4" d="M19.9927 18.9531H14.2984C13.7429 18.9531 13.291 19.4121 13.291 19.9765C13.291 20.5419 13.7429 20.9999 14.2984 20.9999H19.9927C20.5483 20.9999 21.0001 20.5419 21.0001 19.9765C21.0001 19.4121 20.5483 18.9531 19.9927 18.9531Z" fill="url(#paint0_linear_601_21684)"/>
<path d="M10.309 6.90361L15.7049 11.2637C15.835 11.368 15.8573 11.5593 15.7557 11.6926L9.35874 20.028C8.95662 20.5429 8.36402 20.8342 7.72908 20.8449L4.23696 20.8879C4.05071 20.8901 3.88775 20.7611 3.84542 20.5762L3.05175 17.1255C2.91419 16.4913 3.05175 15.8356 3.45388 15.3303L9.88256 6.95521C9.98627 6.82083 10.1778 6.79719 10.309 6.90361Z" fill="url(#paint1_linear_601_21684)"/>
<path opacity="0.4" d="M18.1213 8.66544L17.081 9.96401C16.9763 10.0962 16.7879 10.1177 16.6578 10.0124C15.3932 8.98901 12.155 6.36285 11.2566 5.63509C11.1254 5.52759 11.1074 5.33625 11.2132 5.20295L12.2164 3.95706C13.1265 2.78534 14.7138 2.67784 15.9942 3.69906L17.4652 4.87078C18.0684 5.34377 18.4705 5.96726 18.6081 6.62299C18.7668 7.3443 18.5975 8.0527 18.1213 8.66544Z" fill="url(#paint2_linear_601_21684)"/>
<defs>
<linearGradient id="paint0_linear_601_21684" x1="13.291" y1="18.8274" x2="20.089" y2="22.7946" gradientUnits="userSpaceOnUse">
<stop stop-color="#53E88B"/>
<stop offset="1" stop-color="#15BE77"/>
</linearGradient>
<linearGradient id="paint1_linear_601_21684" x1="3" y1="5.97413" x2="17.8571" y2="8.07424" gradientUnits="userSpaceOnUse">
<stop stop-color="#53E88B"/>
<stop offset="1" stop-color="#15BE77"/>
</linearGradient>
<linearGradient id="paint2_linear_601_21684" x1="11.1445" y1="2.56531" x2="19.8012" y2="3.99031" gradientUnits="userSpaceOnUse">
<stop stop-color="#53E88B"/>
<stop offset="1" stop-color="#15BE77"/>
</linearGradient>
</defs>
</svg>
