<svg width="25" height="25" viewBox="0 0 25 25" fill="none" xmlns="http://www.w3.org/2000/svg">
<g clip-path="url(#clip0_601_38997)">
<path d="M12.5 25C19.4036 25 25 19.4036 25 12.5C25 5.59644 19.4036 0 12.5 0C5.59644 0 0 5.59644 0 12.5C0 19.4036 5.59644 25 12.5 25Z" fill="#3C5A9A"/>
<path d="M16.5649 3.83691H13.7959C12.1526 3.83691 10.3248 4.52804 10.3248 6.91C10.3329 7.73997 10.3248 8.53483 10.3248 9.4294H8.42383V12.4545H10.3837V21.1632H13.985V12.397H16.362L16.5771 9.42091H13.9229C13.9229 9.42091 13.9289 8.09702 13.9229 7.71255C13.9229 6.77125 14.9024 6.82516 14.9613 6.82516C15.4274 6.82516 16.3336 6.82651 16.5663 6.82516V3.83691H16.5649Z" fill="white"/>
</g>
<defs>
<clipPath id="clip0_601_38997">
<rect width="25" height="25" fill="white"/>
</clipPath>
</defs>
</svg>
