<svg width="25" height="34" viewBox="0 0 25 34" fill="none" xmlns="http://www.w3.org/2000/svg">
<path fill-rule="evenodd" clip-rule="evenodd" d="M2.29832 30.0422L9.89135 33.0413C11.9041 33.8362 14.4017 32.2865 15.1808 30.314L23.8799 8.2895C24.6587 6.31765 23.6595 4.07366 21.6467 3.27869L14.0537 0.279656C12.0416 -0.515054 9.77765 0.439324 8.99857 2.41181L0.299503 24.4363C-0.478282 26.4093 0.286251 29.2475 2.29832 30.0422ZM2.8387 19.8766L5.7543 12.4948L7.6042 12.9687L6.40297 16.01L2.8387 19.8766ZM6.46969 17.5836C6.46969 17.5836 4.54065 20.1941 2.90981 22.4029C8.13822 26.6596 14.572 27.0413 14.6667 27.0469L14.6677 27.047L15.36 21.095L6.46969 17.5836ZM16.542 19.7843L17.6648 16.9416L19.3404 17.8588L16.5025 25.0437L16.542 19.7843ZM19.771 16.7684L22.3602 10.2131L20.1425 10.6685L18.0939 15.8551L19.771 16.7684ZM22.0907 7.95298L19.8246 9.49837L10.9324 5.98618L10.3334 3.30917L22.0907 7.95298ZM8.03636 11.8746L10.0039 6.89306L8.6969 5.0447L6.18545 11.4032L8.03636 11.8746Z" fill="#FF1D1D"/>
</svg>
