<svg width="60" height="60" viewBox="0 0 60 60" fill="none" xmlns="http://www.w3.org/2000/svg">
<path d="M26.6421 37.9183H22.5218L25.097 22.0924H29.2177L26.6421 37.9183ZM19.0556 22.0924L15.1275 32.9775L14.6626 30.6335L14.6631 30.6344L13.2766 23.5173C13.2766 23.5173 13.109 22.0924 11.3221 22.0924H4.82815L4.75195 22.3603C4.75195 22.3603 6.73781 22.7735 9.06192 24.1692L12.6416 37.9187H16.9347L23.49 22.0924H19.0556ZM51.4639 37.9183H55.2473L51.9486 22.0919H48.6365C47.107 22.0919 46.7344 23.2713 46.7344 23.2713L40.5893 37.9183H44.8845L45.7434 35.5675H50.9813L51.4639 37.9183ZM46.93 32.3201L49.0949 26.3977L50.3129 32.3201H46.93ZM40.9115 25.8981L41.4995 22.4996C41.4995 22.4996 39.6851 21.8096 37.7936 21.8096C35.7489 21.8096 30.8933 22.7032 30.8933 27.0488C30.8933 31.1373 36.5922 31.1881 36.5922 33.3357C36.5922 35.4833 31.4804 35.0985 29.7934 33.7442L29.1809 37.2977C29.1809 37.2977 31.0207 38.1913 33.8316 38.1913C36.6434 38.1913 40.8852 36.7355 40.8852 32.7731C40.8852 28.6583 35.1351 28.2752 35.1351 26.4861C35.1355 24.6967 39.1483 24.9266 40.9115 25.8981Z" fill="#2566AF"/>
<path d="M14.6631 30.6338L13.2766 23.5167C13.2766 23.5167 13.109 22.0918 11.3221 22.0918H4.82815L4.75195 22.3598C4.75195 22.3598 7.8732 23.0066 10.867 25.4302C13.7296 27.7467 14.6631 30.6338 14.6631 30.6338Z" fill="#E6A540"/>
</svg>
