<svg width="51" height="17" viewBox="0 0 51 17" fill="none" xmlns="http://www.w3.org/2000/svg">
<path d="M21.8902 16.1087H17.7699L20.345 0.282787H24.4658L21.8902 16.1087ZM14.3036 0.282787L10.3755 11.168L9.91068 8.82398L9.9111 8.82482L8.52468 1.70773C8.52468 1.70773 8.35704 0.282787 6.57015 0.282787H0.0762003L0 0.550757C0 0.550757 1.98586 0.963931 4.30997 2.35966L7.88968 16.1091H12.1827L18.738 0.282787H14.3036ZM46.712 16.1087H50.4953L47.1967 0.282364H43.8845C42.355 0.282364 41.9825 1.46177 41.9825 1.46177L35.8374 16.1087H40.1325L40.9915 13.7579H46.2294L46.712 16.1087ZM42.1781 10.5105L44.343 4.58809L45.5609 10.5105H42.1781ZM36.1595 4.08856L36.7475 0.690034C36.7475 0.690034 34.9331 0 33.0417 0C30.997 0 26.1413 0.893658 26.1413 5.23918C26.1413 9.32775 31.8402 9.37855 31.8402 11.5261C31.8402 13.6737 26.7285 13.2889 25.0415 11.9346L24.4289 15.4881C24.4289 15.4881 26.2687 16.3818 29.0797 16.3818C31.8915 16.3818 36.1333 14.9259 36.1333 10.9635C36.1333 6.8487 30.3831 6.46558 30.3831 4.67657C30.3835 2.88714 34.3963 3.11701 36.1595 4.08856Z" fill="#2566AF"/>
</svg>
