<svg width="24" height="24" viewBox="0 0 24 24" fill="none" xmlns="http://www.w3.org/2000/svg">
<path d="M13.3571 6.45056C13.3068 5.96422 13.2543 5.45963 13.1254 4.95611C12.7741 3.75153 11.801 3.00001 10.7576 3.00001C10.1757 2.99786 9.43954 3.35644 9.0222 3.71932L5.56287 6.61697H3.75194C2.41918 6.61697 1.34751 7.6444 1.14513 9.12705C0.973161 10.5506 0.931217 13.2379 1.14513 14.8042C1.33073 16.3706 2.35416 17.383 3.75194 17.383H5.56287L9.08931 20.3236C9.45107 20.6382 10.0897 20.9989 10.6769 20.9989C10.7146 21 10.7482 21 10.7817 21C11.845 21 12.7814 20.2206 13.1327 19.0192C13.2659 18.5082 13.312 18.0293 13.3571 17.5666L13.4043 17.1082C13.5846 15.6213 13.5846 8.36908 13.4043 6.89288L13.3571 6.45056Z" fill="url(#paint0_linear_601_29850)"/>
<path opacity="0.4" d="M17.4068 6.49419C17.1185 6.06904 16.547 5.96276 16.1286 6.258C15.7144 6.55538 15.6117 7.14157 15.9 7.56564C16.7022 8.74768 17.1437 10.3216 17.1437 11.9996C17.1437 13.6766 16.7022 15.2515 15.9 16.4336C15.6117 16.8577 15.7144 17.4438 16.1297 17.7412C16.2848 17.8507 16.4663 17.9087 16.6529 17.9087C16.9539 17.9087 17.2349 17.7573 17.4068 17.505C18.4198 16.0127 18.9787 14.0577 18.9787 11.9996C18.9787 9.94152 18.4198 7.98649 17.4068 6.49419Z" fill="url(#paint1_linear_601_29850)"/>
<path opacity="0.4" d="M20.5682 3.45726C20.2819 3.03319 19.7083 2.92475 19.291 3.22107C18.8768 3.51845 18.774 4.10464 19.0613 4.52871C20.4182 6.52776 21.1659 9.18169 21.1659 11.9999C21.1659 14.8192 20.4182 17.4731 19.0613 19.4722C18.774 19.8973 18.8768 20.4824 19.292 20.7798C19.4472 20.8893 19.6276 20.9473 19.8142 20.9473C20.1152 20.9473 20.3972 20.7959 20.5682 20.5436C22.1369 18.2343 23.0009 15.2003 23.0009 11.9999C23.0009 8.80164 22.1369 5.76657 20.5682 3.45726Z" fill="url(#paint2_linear_601_29850)"/>
<defs>
<linearGradient id="paint0_linear_601_29850" x1="1" y1="1.89474" x2="15.6525" y2="3.47625" gradientUnits="userSpaceOnUse">
<stop stop-color="#53E88B"/>
<stop offset="1" stop-color="#15BE77"/>
</linearGradient>
<linearGradient id="paint1_linear_601_29850" x1="15.7363" y1="5.36516" x2="19.5623" y2="5.5278" gradientUnits="userSpaceOnUse">
<stop stop-color="#53E88B"/>
<stop offset="1" stop-color="#15BE77"/>
</linearGradient>
<linearGradient id="paint2_linear_601_29850" x1="18.8984" y1="1.95498" x2="23.7419" y2="2.12703" gradientUnits="userSpaceOnUse">
<stop stop-color="#53E88B"/>
<stop offset="1" stop-color="#15BE77"/>
</linearGradient>
</defs>
</svg>
