<svg width="50" height="50" viewBox="0 0 50 50" fill="none" xmlns="http://www.w3.org/2000/svg">
<g clip-path="url(#clip0_601_37256)">
<path d="M22.3972 44.788C17.5163 44.788 13.5437 40.8153 13.5437 35.9344V6.28906L3.48019 8.59295C0.992829 9.24711 -0.498593 11.8115 0.159387 14.3218L8.7879 46.5376C9.36082 48.621 11.2753 49.9999 13.3293 49.9999C13.7145 49.9999 14.1063 49.9519 14.4938 49.85L35.492 44.788H22.3972Z" fill="#B0BEC5"/>
<path d="M49.9988 5.72882V35.9345C49.9988 39.1008 47.4363 41.6633 44.27 41.6633H22.3968C20.2512 41.6633 18.3764 40.4759 17.3973 38.7259C16.9388 37.9134 16.668 36.9552 16.668 35.9345V5.72882C16.668 2.56212 19.2305 0 22.3968 0H44.27C47.4363 0 49.9988 2.56212 49.9988 5.72882Z" fill="#ECEFF1"/>
<path d="M31.2509 14.5821C31.2509 16.8833 29.3856 18.7485 27.0844 18.7485C24.7836 18.7485 22.918 16.8833 22.918 14.5821C22.918 12.2812 24.7836 10.416 27.0844 10.416C29.3856 10.416 31.2509 12.2812 31.2509 14.5821Z" fill="#FFC107"/>
<path d="M49.9999 24.8729V35.9346C49.9999 39.1009 47.4374 41.6634 44.2711 41.6634H22.3979C20.2524 41.6634 18.3776 40.476 17.3984 38.7259L38.0426 18.0817C39.4589 16.6655 41.7922 16.6655 43.2088 18.0817L49.9999 24.8729Z" fill="#388E3C"/>
<path d="M43.874 41.6635H22.3968C20.2512 41.6635 18.3764 40.4761 17.3973 38.726C16.9388 37.9136 16.668 36.9554 16.668 35.9347V31.1225L22.4178 25.373C23.834 23.9564 26.1673 23.9564 27.584 25.373L43.874 41.6635Z" fill="#4CAF50"/>
</g>
<defs>
<clipPath id="clip0_601_37256">
<rect width="50" height="50" fill="white"/>
</clipPath>
</defs>
</svg>
