<svg width="25" height="25" viewBox="0 0 25 25" fill="none" xmlns="http://www.w3.org/2000/svg">
<g clip-path="url(#clip0_601_38990)">
<path d="M24.3917 12.7343C24.3917 11.71 24.3087 10.9626 24.129 10.1875H12.4453V14.8104H19.3034C19.1652 15.9593 18.4185 17.6894 16.7593 18.852L16.736 19.0068L20.4302 21.8716L20.6861 21.8971C23.0367 19.724 24.3917 16.5267 24.3917 12.7343Z" fill="#4285F4"/>
<path d="M12.445 24.9142C15.8049 24.9142 18.6255 23.8069 20.6858 21.8969L16.7589 18.8517C15.7081 19.5853 14.2977 20.0974 12.445 20.0974C9.1542 20.0974 6.36119 17.9244 5.36556 14.9209L5.21962 14.9333L1.37836 17.9092L1.32812 18.049C3.37448 22.1182 7.57787 24.9142 12.445 24.9142Z" fill="#34A853"/>
<path d="M5.36673 14.9209C5.10402 14.1458 4.95199 13.3153 4.95199 12.4572C4.95199 11.599 5.10402 10.7685 5.35291 9.99343L5.34595 9.82835L1.45656 6.80469L1.3293 6.86528C0.485899 8.55392 0.00195312 10.4502 0.00195312 12.4572C0.00195312 14.4641 0.485899 16.3603 1.3293 18.049L5.36673 14.9209Z" fill="#FBBC05"/>
<path d="M12.445 4.8167C14.7817 4.8167 16.3579 5.8271 17.2567 6.67147L20.7687 3.23884C18.6118 1.23187 15.8049 0 12.445 0C7.57786 0 3.37448 2.7959 1.32812 6.86517L5.35173 9.99332C6.36118 6.98979 9.15419 4.8167 12.445 4.8167Z" fill="#EB4335"/>
</g>
<defs>
<clipPath id="clip0_601_38990">
<rect width="24.4048" height="25" fill="white"/>
</clipPath>
</defs>
</svg>
