<svg width="24" height="24" viewBox="0 0 24 24" fill="none" xmlns="http://www.w3.org/2000/svg">
<g opacity="0.5">
<path opacity="0.4" d="M7.42969 19.0684C8.25953 19.0684 8.94018 19.7481 8.94043 20.5879C8.94043 21.4179 8.25969 22.0986 7.42969 22.0986C6.5899 22.0984 5.91016 21.4177 5.91016 20.5879C5.91041 19.7483 6.59006 19.0686 7.42969 19.0684ZM18.6797 19.0684C19.5095 19.0684 20.1902 19.7481 20.1904 20.5879C20.1904 21.4179 19.5097 22.0986 18.6797 22.0986C17.8399 22.0984 17.1602 21.4177 17.1602 20.5879C17.1604 19.7483 17.8401 19.0686 18.6797 19.0684Z" fill="url(#paint0_linear_601_31639)"/>
<path fill-rule="evenodd" clip-rule="evenodd" d="M20.1907 6.34933C20.8007 6.34933 21.2007 6.55933 21.6007 7.01933C22.0007 7.47933 22.0707 8.13933 21.9807 8.73833L21.0307 15.2983C20.8507 16.5593 19.7707 17.4883 18.5007 17.4883H7.59074C6.26074 17.4883 5.16074 16.4683 5.05074 15.1493L4.13074 4.24833L2.62074 3.98833C2.22074 3.91833 1.94074 3.52833 2.01074 3.12833C2.08074 2.71833 2.47074 2.44833 2.88074 2.50833L5.26574 2.86833C5.60574 2.92933 5.85574 3.20833 5.88574 3.54833L6.07574 5.78833C6.10574 6.10933 6.36574 6.34933 6.68574 6.34933H20.1907ZM14.1307 11.5483H16.9007C17.3207 11.5483 17.6507 11.2083 17.6507 10.7983C17.6507 10.3783 17.3207 10.0483 16.9007 10.0483H14.1307C13.7107 10.0483 13.3807 10.3783 13.3807 10.7983C13.3807 11.2083 13.7107 11.5483 14.1307 11.5483Z" fill="url(#paint1_linear_601_31639)"/>
</g>
<defs>
<linearGradient id="paint0_linear_601_31639" x1="5.91016" y1="18.8823" x2="16.9211" y2="26.9218" gradientUnits="userSpaceOnUse">
<stop stop-color="#53E88B"/>
<stop offset="1" stop-color="#15BE77"/>
</linearGradient>
<linearGradient id="paint1_linear_601_31639" x1="2" y1="1.57966" x2="24.6895" y2="6.27417" gradientUnits="userSpaceOnUse">
<stop stop-color="#53E88B"/>
<stop offset="1" stop-color="#15BE77"/>
</linearGradient>
</defs>
</svg>
