<svg width="20" height="20" viewBox="0 0 20 20" fill="none" xmlns="http://www.w3.org/2000/svg">
<path d="M10 0.75C11.9655 0.75 13.5664 2.3309 13.6582 4.30078H14.9707C15.7473 4.30083 16.3933 4.91663 16.4521 5.69531L17.2412 15.8242V15.8252C17.3073 16.7054 17.0079 17.5803 16.4189 18.2285C15.8298 18.8769 14.9944 19.25 14.125 19.25H5.875C5.00558 19.25 4.17019 18.8769 3.58105 18.2285C2.99209 17.5803 2.69265 16.7052 2.75879 15.8262V15.8252L3.54785 5.69336C3.60683 4.91611 4.25308 4.30089 5.0293 4.30078H6.3418C6.43358 2.33091 8.03452 0.750023 10 0.75ZM4.28906 15.9463C4.25473 16.4038 4.4043 16.8393 4.70996 17.1758C5.01554 17.512 5.42777 17.6953 5.875 17.6953H14.125C14.5722 17.6953 14.9854 17.512 15.291 17.1758C15.5963 16.8395 15.7452 16.404 15.7109 15.9453L14.9258 5.85547H13.6631V6.90332C13.6631 7.32796 13.3237 7.68066 12.8955 7.68066C12.4676 7.6804 12.1289 7.3278 12.1289 6.90332V5.85547H7.87109V6.90332C7.87109 7.32783 7.53247 7.68045 7.10449 7.68066C6.67633 7.68066 6.33691 7.32796 6.33691 6.90332V5.85547H5.07422L4.28906 15.9463ZM10 2.30469C8.88941 2.30471 7.96928 3.18115 7.87988 4.30078H12.1201C12.0307 3.18117 11.1106 2.30469 10 2.30469Z" fill="#3FDA85" stroke="#3FDA85" stroke-width="0.5"/>
<path d="M11.6338 9.75684C11.9601 9.43044 12.4891 9.43041 12.8154 9.75684C13.1417 10.0832 13.1418 10.6121 12.8154 10.9385L9.78613 13.9678C9.62307 14.131 9.40865 14.2128 9.19531 14.2129C8.98184 14.2129 8.76759 14.1309 8.60449 13.9678L7.18457 12.5479C6.85819 12.2215 6.85819 11.6926 7.18457 11.3662C7.51095 11.04 8.03992 11.0399 8.36621 11.3662L9.19531 12.1953L11.6338 9.75684Z" fill="#3FDA85" stroke="white" stroke-width="0.5"/>
</svg>
