<svg width="30" height="30" viewBox="0 0 30 30" fill="none" xmlns="http://www.w3.org/2000/svg">
<path opacity="0.4" fill-rule="evenodd" clip-rule="evenodd" d="M19.8216 9.44517C19.8444 9.61179 19.8658 9.76875 19.8773 9.97647L7.86188 21.9905H7.58399C5.82402 21.9905 4.54043 20.7467 4.30224 18.815C4.03758 16.8832 4.09051 13.5754 4.30224 11.8156C4.55366 9.9897 5.90341 8.73273 7.58399 8.73273H9.87327L14.2401 5.15896C14.7694 4.71042 15.709 4.28702 16.4368 4.27246C17.7601 4.27246 18.9775 5.19997 19.4142 6.68188C19.5862 7.30243 19.6524 7.92562 19.7053 8.5197L19.8111 9.36783C19.8147 9.39398 19.8182 9.41969 19.8216 9.44517ZM18.6002 17.1641C18.7802 16.9881 19.1785 16.8638 19.3584 16.9087C19.8454 17.0331 19.9394 17.7304 19.9327 18.2782C19.9102 19.8686 19.856 20.9747 19.7713 21.6588L19.7118 22.2224L19.7107 22.233C19.6541 22.8 19.5956 23.3867 19.4286 24.0126C18.9866 25.4919 17.8049 26.4525 16.4631 26.4525C16.4181 26.4525 16.3744 26.4525 16.3294 26.4511C15.5884 26.4511 14.7825 26.0066 14.326 25.6189L12.6997 24.3606C12.083 23.9015 12.2643 23.1671 12.611 22.7424C12.8698 22.4263 15.9796 19.5723 17.6144 18.0719C18.1695 17.5624 18.5546 17.209 18.6002 17.1641Z" fill="url(#paint0_linear_601_29440)"/>
<path d="M27.1594 4.08723C26.6923 3.63605 25.9751 3.63869 25.5252 4.08856L4.08794 25.5232C3.6367 25.9744 3.6367 26.6929 4.09191 27.1652C4.3248 27.3809 4.61328 27.5 4.90573 27.5C5.20479 27.5 5.51179 27.3743 5.72484 27.1613L27.1607 5.72659C27.6133 5.27408 27.6133 4.54107 27.1594 4.08723Z" fill="url(#paint1_linear_601_29440)"/>
<defs>
<linearGradient id="paint0_linear_601_29440" x1="4.12305" y1="2.91053" x2="22.5871" y2="4.94968" gradientUnits="userSpaceOnUse">
<stop stop-color="#53E88B"/>
<stop offset="1" stop-color="#15BE77"/>
</linearGradient>
<linearGradient id="paint1_linear_601_29440" x1="3.75" y1="2.29167" x2="31.1671" y2="6.53955" gradientUnits="userSpaceOnUse">
<stop stop-color="#53E88B"/>
<stop offset="1" stop-color="#15BE77"/>
</linearGradient>
</defs>
</svg>
